<?xml version="1.0" encoding="UTF-8" standalone="no"?>
<!-- Created with Inkscape (http://www.inkscape.org/) -->

<svg
   width="143.38567mm"
   height="193.90916mm"
   viewBox="0 0 143.38567 193.90916"
   version="1.1"
   id="svg1"
   xml:space="preserve"
   xmlns:inkscape="http://www.inkscape.org/namespaces/inkscape"
   xmlns:sodipodi="http://sodipodi.sourceforge.net/DTD/sodipodi-0.dtd"
   xmlns="http://www.w3.org/2000/svg"
   xmlns:svg="http://www.w3.org/2000/svg"><sodipodi:namedview
     id="namedview1"
     pagecolor="#ffffff"
     bordercolor="#111111"
     borderopacity="1"
     inkscape:showpageshadow="0"
     inkscape:pageopacity="0"
     inkscape:pagecheckerboard="1"
     inkscape:deskcolor="#d1d1d1"
     inkscape:document-units="mm" /><defs
     id="defs1" /><g
     inkscape:label="Layer 1"
     inkscape:groupmode="layer"
     id="layer1"
     transform="translate(-35.201615,-62.812567)"><path
       style="fill:#ffffff;fill-opacity:1;stroke:#ffffff;stroke-width:2;stroke-dasharray:none"
       d="m 55.585691,255.50537 c -7.66835,-1.20335 -13.353416,-6.7105 -15.465086,-14.98109 -0.486611,-1.90587 -0.551471,-2.93532 -0.550095,-8.73112 0.0021,-8.66364 0.417426,-11.5535 2.826851,-19.66737 2.24721,-7.56759 4.38059,-12.69604 9.22737,-22.18166 l 3.29005,-6.43895 v -2.04692 c 0,-1.89288 -0.0913,-2.23464 -1.21375,-4.54126 -0.66756,-1.37189 -2.39306,-4.64296 -3.83445,-7.26905 -4.78785,-8.72308 -8.986191,-18.36458 -10.939757,-25.1232 -1.794166,-6.20716 -2.981313,-14.42913 -2.674169,-18.52084 0.474782,-6.32494 2.57597,-11.98718 5.567185,-15.00235 6.604881,-6.65776 21.819041,-4.63587 41.774171,5.5516 8.70588,4.44452 20.004099,11.92935 20.004099,13.25231 0,0.75999 -1.87212,-0.0142 -10.347809,-4.27912 -19.16164,-9.64206 -22.21102,-10.62718 -32.91156,-10.63229 -5.09624,-0.002 -5.71999,0.0488 -7.53395,0.61834 -2.80421,0.88052 -4.37954,1.74435 -6.03357,3.30851 -2.59475,2.45376 -3.753153,5.68808 -3.757217,10.49029 -0.01319,15.58374 11.121667,38.38195 30.432477,62.30938 9.62067,11.92068 17.52797,19.97945 22.64169,23.07542 3.920079,2.37331 6.225909,3.03459 10.615999,3.0445 2.49375,0.006 3.47943,-0.10945 4.96373,-0.57955 4.66153,-1.47636 9.80912,-4.97182 16.47371,-11.18645 5.86038,-5.46471 10.33908,-10.41481 16.45665,-18.18877 0.65915,-0.83763 0.7976,-0.89974 1.47443,-0.66146 1.50674,0.53046 2.63646,4.29421 1.99887,6.65941 -0.47317,1.75527 -2.35747,3.99357 -9.2801,11.02358 -12.04632,12.23318 -18.29138,17.18375 -23.81627,18.87958 -2.71417,0.8331 -2.91041,0.97103 -2.91041,2.04558 0,1.12983 1.15933,2.88779 3.02982,4.59429 3.28744,2.99922 14.95627,10.02192 22.69787,13.66035 16.44438,7.72862 26.48644,6.20099 29.42939,-4.4769 0.60464,-2.19381 0.82294,-8.16023 0.4177,-11.41643 -1.11799,-8.98346 -6.14655,-21.76639 -14.71211,-37.39919 -3.45647,-6.30832 -9.24509,-15.98904 -10.16024,-16.9917 l -0.67223,-0.7365 -1.67836,0.53008 c -3.76561,1.1893 -8.30974,0.93759 -11.60786,-0.64299 -11.07436,-5.30725 -12.14281,-20.47911 -1.92076,-27.27471 3.03471,-2.01747 4.27205,-2.35649 8.5924,-2.35426 3.24918,0.002 3.89916,0.0778 5.29167,0.61983 5.24007,2.03967 9.05903,6.53077 10.11221,11.89199 0.51578,2.62561 0.23271,5.03684 -0.8398,7.15332 -0.83877,1.65524 -2.79012,3.33951 -2.79012,2.40824 0,-0.1437 0.29765,-1.40689 0.66146,-2.80709 0.73355,-2.82328 0.80067,-3.91093 0.36907,-5.98059 -1.0594,-5.08014 -5.2569,-9.07247 -10.52941,-10.01472 -5.85601,-1.04652 -12.32342,3.33186 -13.90804,9.41564 -1.45781,5.59693 1.41367,11.47227 6.94714,14.21452 2.21089,1.09566 2.32691,1.12206 4.9302,1.12206 2.63087,0 4.65041,-0.42336 4.65041,-0.97486 0,-0.14981 -0.7819,-1.39385 -1.73755,-2.76453 -2.04048,-2.92666 -2.31094,-3.90059 -1.38284,-4.97957 0.49958,-0.58079 0.92161,-0.76623 1.94534,-0.85475 2.21025,-0.19111 2.4973,0.0959 10.23308,10.2323 1.49806,1.96295 2.90483,3.60388 3.12615,3.6465 0.78315,0.15082 6.82991,-9.8583 10.43304,-17.26967 5.9977,-12.33684 8.64646,-22.78748 8.27454,-32.64713 -0.19445,-5.15499 -1.25535,-7.93885 -3.83686,-10.06816 -3.04226,-2.50934 -10.61168,-3.48429 -16.86844,-2.17268 -7.01805,1.47119 -13.97318,4.25623 -28.01212,11.21687 -6.09334,3.02114 -11.30232,5.49297 -11.57552,5.49297 -1.80003,0 1.90314,-3.22641 9.62735,-8.38792 10.60551,-7.08686 23.00955,-12.86377 31.68008,-14.75432 2.69564,-0.58776 9.79608,-0.83963 11.95882,-0.4242 4.59399,0.88244 8.50908,3.929 10.6573,8.29308 2.88135,5.85343 3.4358,13.11956 1.72574,22.61639 -2.08104,11.55715 -8.55364,27.2619 -17.49448,42.44765 -1.00116,1.70045 -1.82002,3.24826 -1.81969,3.43959 3.3e-4,0.19132 0.6038,1.41942 1.34105,2.72911 6.01072,10.6778 9.87752,18.99685 12.36633,26.60496 2.78751,8.52125 3.5988,13.1007 3.58326,20.22629 -0.009,4.256 -0.0823,5.02982 -0.6866,7.27604 -0.37192,1.38245 -0.93427,3.19643 -1.24968,4.03107 -1.74482,4.61727 -6.63856,9.33565 -11.12163,10.7231 -1.99787,0.61831 -8.63626,0.59012 -12.30313,-0.0523 -4.96346,-0.86951 -11.51336,-3.29552 -18.65312,-6.90891 -9.25949,-4.68616 -18.58697,-10.87541 -29.21186,-19.38354 -9.546509,-7.64458 -16.142189,-13.67886 -26.927539,-24.63554 -10.06029,-10.2201 -11.37327,-11.13502 -14.09141,-9.8192 -2.11785,1.02524 -4.24553,4.47743 -8.18354,13.27788 -4.08365,9.12592 -6.0369,17.11463 -6.0386,24.69761 -10e-4,6.39798 1.28728,10.1622 4.61711,13.48613 2.66243,2.65771 5.02088,3.78644 8.53037,4.08255 6.94383,0.58588 11.95586,-0.87619 28.03035,-8.1768 8.87646,-4.03146 10.92347,-4.77637 10.56608,-3.84505 -0.37818,0.98552 -8.77969,6.85598 -14.19314,9.91731 -10.54131,5.96113 -21.31134,9.00435 -28.09774,7.9394 z M 103.76152,111.28342 c -2.31567,-0.29727 -6.170799,-1.58242 -8.281319,-2.76067 -7.7807,-4.34375 -12.51694,-12.661018 -12.19896,-21.422456 0.0951,-2.621202 0.1941,-3.108566 0.96628,-4.758668 1.075,-2.297233 2.7112,-4.488942 3.75359,-5.027983 1.56648,-0.810055 1.66105,-0.108793 0.45383,3.365321 -0.81585,2.347855 -0.85587,2.647144 -0.85989,6.4312 -0.004,3.373352 0.0838,4.246603 0.5826,5.820833 1.6388,5.172255 6.19213,9.941133 11.54915,12.095863 2.116999,0.8515 2.219439,0.86541 6.384849,0.86656 3.93232,10e-4 4.37132,-0.0492 6.17395,-0.70721 2.92815,-1.06886 4.70791,-2.23549 7.1924,-4.71459 2.34656,-2.341478 3.71955,-4.523438 4.77296,-7.585251 0.63999,-1.860163 0.94071,-6.711392 0.55789,-9.00012 -0.87399,-5.225328 -4.96277,-10.783083 -9.7578,-13.263455 -5.39371,-2.790066 -10.60151,-2.966002 -16.651839,-0.562554 -2.41364,0.958804 -3.3471,0.987349 -4.20583,0.128617 -0.9617,-0.961702 -0.8698,-2.065975 0.24256,-2.914412 1.20289,-0.91749 4.70634,-2.410779 6.941599,-2.958747 2.76951,-0.67894 8.83191,-0.610102 11.61328,0.131868 10.59805,2.827187 17.86502,12.245002 17.85752,23.142916 -0.004,5.394084 -1.77071,10.51294 -5.02574,14.559178 -3.39852,4.2246 -6.90947,6.66605 -11.78436,8.19464 -3.65258,1.14531 -6.58388,1.41318 -10.27672,0.93912 z"
       id="path1"
       sodipodi:nodetypes="ssssscsssssssssccsssscsssssssssssssscssscssssssssssssssssssssssssssssssscssscssssscssssssssscsssccscsssssssssscsss" /></g></svg>
